<svg xmlns="http://www.w3.org/2000/svg" viewBox="0 0 504 504" version="1.0"><path style="fill:#000" d="M203.31 470.98c-37.82-2.38-72.44-10.98-98.55-24.5-7.313-3.78-9.668-5.52-10.403-7.66-.67-1.95-.227-8.73 1.504-23l2.454-20.23-2.372-26.5-2.372-26.5-6.02-10.5c-8.287-14.46-18.199-29.13-30.075-44.5-16.93-21.92-22.602-31.4-27.228-45.5-2.394-7.3-2.799-10.2-2.865-20.5-.064-9.93.327-13.29 2.266-19.5 7.194-23.03 22.734-40.01 43.512-47.56 19.539-7.09 37.909-7.04 60.819.16 22.26 7 50.12 23.89 70.47 42.73l5.92 5.48-2.21-8.76c-4.57-18.12-5.42-31.98-2.76-44.84 2.95-14.28 9.79-27.05 18.62-34.72 4.17-3.62 16.94-10.49 19.51-10.49.99 0 1.28-3.96 1.28-17.502v-17.5h-33v-15h33v-22h15v22h32v15h-32V103.59l7.25 3.26c16.31 7.34 26.88 21.75 31.16 42.45 2.65 12.86 1.8 26.72-2.77 44.84l-2.21 8.76 5.92-5.48c14.77-13.67 34.55-27.1 52.15-35.4 23.93-11.28 46.51-15.22 65.19-11.36 17.16 3.55 27.95 9.15 39.31 20.43 16.38 16.26 24.03 40.91 19.55 63.03-3.29 16.28-10.04 28.64-29.2 53.47-11.89 15.41-21.82 30.09-30.09 44.5l-6.03 10.5-2.37 26.5-2.37 26.5 2.45 20.23c1.73 14.27 2.17 21.05 1.5 23-.73 2.14-3.09 3.88-10.4 7.66-26.95 13.95-60.12 22.02-101.04 24.57-18.94 1.18-75.28 1.14-94.5-.07z"/><path style="fill:#fff" d="M253.09 266.34c.29-.96 4.2-12.33 8.7-25.25 16.95-48.77 18.55-54.61 19.65-71.54 1.11-17.25-2.2-29.15-10.86-38.98-5.02-5.71-12.47-9.46-18.77-9.46-6.31 0-13.75 3.75-18.78 9.46-8.65 9.83-11.97 21.73-10.85 38.98 1.09 16.93 2.69 22.77 19.65 71.54 4.49 12.92 8.4 24.29 8.69 25.25.28.96.86 1.75 1.29 1.75.42 0 1-.79 1.28-1.75zM401.73 322.02c6.47-11.73 19.86-31.47 32.17-47.43 18.7-24.25 23.64-34.18 24.6-49.45 1.06-16.9-3.96-30.54-15.44-41.98-11.95-11.9-25.86-16.74-45.25-15.73-18.12.95-34.24 6.5-54.87 18.92-33.44 20.13-63.63 55.07-71.81 83.13-1.98 6.77-6.4 26.83-8.66 39.23l-.56 3.13 13.2.66c38.4 1.93 87.7 8.91 113.2 16.02 8.47 2.36 8.55 2.32 13.42-6.5zM125.31 326.22c29.26-6.69 63.08-11.37 95.5-13.22 11.27-.64 20.6-1.24 20.72-1.34.51-.42-6.83-34.68-9.03-42.18-8.25-28.13-38.4-63.01-71.83-83.13-20.63-12.42-36.74-17.97-54.86-18.92-19.395-1.01-33.312 3.83-45.254 15.73-11.495 11.45-16.528 25.14-15.416 41.93 1.028 15.52 6.186 25.8 25.344 50.51 11.684 15.07 24.983 34.76 31.366 46.43 5.16 9.43 2.59 8.97 23.46 4.19zM156.67 372.63c71.89-15.99 147.95-13.46 218.86 7.27l12.95 3.78 1.22-15.04c.66-8.28 1.45-16.44 1.74-18.13l.52-3.07-14.33-3.25c-82.01-18.61-169.64-18.61-251.65 0l-14.33 3.25.53 3.07c.28 1.69 1.07 9.85 1.74 18.13l1.21 15.04 12.95-3.78c7.13-2.09 19.99-5.36 28.59-7.27z"/><path style="fill:#fff" d="M153.31 409.08c36.73-9.52 59.76-12.43 98.5-12.43 21.19 0 32.21.46 43 1.78 27.63 3.38 58.41 10.38 83.26 18.92 9.91 3.41 12.66 4.04 12.3 2.82-.26-.87-.77-4.84-1.14-8.82-.37-3.97-1.18-7.89-1.8-8.7-1.38-1.82-23.66-8.38-42.29-12.45-70.2-15.35-145.79-12.88-214.17 7-7.52 2.18-14.17 4.64-14.79 5.45-.61.81-1.42 4.73-1.8 8.7-.37 3.98-.88 7.95-1.14 8.82-.36 1.22 2.39.59 12.3-2.82 7.02-2.41 19.52-6.13 27.77-8.27z"/><path style="fill:#fff" d="M297.81 453.05c19.4-1.21 39.53-3.99 53.5-7.38 12.46-3.03 27.93-8.57 26.82-9.6-1.19-1.12-21.14-7.4-32.82-10.34-32.91-8.26-56.66-11.08-93.5-11.08-36.85 0-60.6 2.82-93.5 11.08-11.69 2.94-31.64 9.22-32.83 10.34-1.1 1.03 14.36 6.56 26.83 9.6 13.07 3.18 34.74 6.29 51 7.31 19.22 1.21 75.56 1.25 94.5.07z"/></svg>