<svg xmlns="http://www.w3.org/2000/svg" viewBox="0 0 504 504" version="1.0"><path style="fill:#000" d="M86.083 448.55c-4.536-2.48-5.032-5.43-4.697-27.94l.309-20.74 2.805-2.42c2.537-2.18 3.711-2.41 12.25-2.41h9.44l.01-17.75c0-15.83.21-18.07 1.93-20.75 1.07-1.65 10.5-12 20.96-23l19.04-20 .02-71 .03-71-23.54-17.9c-12.94-9.84-23.96-18.7-24.49-19.68-.555-1.04-.955-16.48-.955-36.902 0-38.412.163-39.598 5.765-41.917 2.04-.846 11.59-1.1 33.52-.891 37.97.362 35.06-1.056 35.55 17.317l.33 12.475h33.83V73.51c0-12.228 1.34-16.534 5.68-18.331 2.14-.889 12.74-1.133 40.09-.922 45.53.35 41.57-1.279 42.07 17.31l.33 12.475h33.83V72.993c0-12.413 1.14-15.936 5.77-17.852 2.04-.846 11.59-1.1 33.52-.891 30.39.29 30.68.313 32.94 2.569 2.27 2.275 2.27 2.309 2.56 38.871.24 30.24.04 36.96-1.13 38.72-.78 1.17-11.81 10.01-24.53 19.63l-23.11 17.5v71l-.01 71 20.11 21.48c11.06 11.82 20.51 22.53 21 23.82.49 1.28.88 9.91.88 19.17v16.84l9.98.35c15.12.52 14.52-.61 14.52 27.34 0 22.03-.04 22.49-2.27 24.72l-2.28 2.28-164.72.22c-140.94.18-165.1.01-167.34-1.21h.003z"/><path style="fill:#fff" d="M387.19 96.542v-24.5h-38.83l-.33 12.475c-.49 18.273 2.02 16.953-33.04 17.323-20.06.21-28.99-.05-31.03-.89-4.63-1.922-5.77-5.441-5.77-17.858v-11.05h-52v11.945c0 11.182-.15 12.123-2.41 14.75l-2.41 2.803-28.27.3c-20.14.21-29.1-.05-31.14-.89-4.63-1.922-5.77-5.441-5.77-17.858v-11.05h-39V121.04h270V96.542zM357.47 148.79l12.14-9.25-58.71-.26c-32.29-.14-85.1-.14-117.35 0l-58.64.26 11.89 9.2 11.89 9.2 93.32.05 93.32.05 12.14-9.25zM338.19 242.04v-66h-172v132h172v-66zM366.52 350.73c-1.01-1.27-6.55-7.35-12.33-13.5l-10.5-11.19H160.54l-12.75 13.5-12.76 13.5h233.31l-1.82-2.31zM380.19 383.04v-12h-256v24h256v-12zM405.19 422.54v-9.5h-306l.005 9.5v9.5h305.99v-9.5z"/></svg>