<svg xmlns="http://www.w3.org/2000/svg" viewBox="0 0 504 504" version="1.0"><path style="fill:#000" d="M90 422.5V404h25v-42.71l21-22.36 21-22.36V167.45l-24.44-18.47-24.45-18.48-.05-33.75L108 63h57v30h52V63h70v30h52V63h57l-.05 33.75-.05 33.75-24.45 18.5L347 167.5v149.39l20.97 22.31 20.97 22.3.03 21.25L389 404h25v37H90v-18.5z"/><path style="fill:#fff" d="M387.55 134.55c1.35-1.35 2.45-3.62 2.45-5.05 0-1.42-1.1-3.7-2.45-5.05l-2.46-2.45H118.91l-2.46 2.45c-1.35 1.35-2.45 3.63-2.45 5.05s1.1 3.7 2.45 5.05l2.46 2.45h266.18l2.46-2.45zM337.55 172.55c1.35-1.35 2.45-3.62 2.45-5.05 0-1.42-1.1-3.7-2.45-5.05l-2.46-2.45H168.91l-2.46 2.45c-1.35 1.35-2.45 3.63-2.45 5.05s1.1 3.7 2.45 5.05l2.46 2.45h166.18l2.46-2.45zM337.55 321.55c1.35-1.35 2.45-3.62 2.45-5.05 0-1.42-1.1-3.7-2.45-5.05l-2.46-2.45H168.91l-2.46 2.45c-1.35 1.35-2.45 3.63-2.45 5.05 0 1.43 1.1 3.7 2.45 5.05l2.46 2.45h166.18l2.46-2.45zM379.09 367.72c4.34-3.34 4.6-8.07.64-11.75-2.07-1.94-4.21-1.97-127.73-1.97s-125.66.03-127.73 1.97c-3.96 3.68-3.7 8.41.64 11.75 2.31 1.77 251.87 1.77 254.18 0zM379.09 409.72c4.34-3.34 4.6-8.07.64-11.75-2.07-1.94-4.21-1.97-127.73-1.97s-125.66.03-127.73 1.97c-3.96 3.68-3.7 8.41.64 11.75 2.31 1.77 251.87 1.77 254.18 0z"/></svg>